<?xml version="1.0" encoding="UTF-8" standalone="no" ?>
<!DOCTYPE svg PUBLIC "-//W3C//DTD SVG 1.1//EN" "http://www.w3.org/Graphics/SVG/1.1/DTD/svg11.dtd">
<svg xmlns="http://www.w3.org/2000/svg" xmlns:xlink="http://www.w3.org/1999/xlink" version="1.1" width="640" height="640" viewBox="0 0 640 640" xml:space="preserve">
<desc>Created with Fabric.js 5.3.0</desc>
<defs>
</defs>
<g transform="matrix(0.1777080382 0 0 0.1777080382 171.0832152672 500)" id="0a8LOHSfORwGveIzoX5Hx"  >
<g style=""   >
		<g transform="matrix(1.5625 0 0 1.5625 0 0.00078125)" id="KgTHZuwHkxHq-8uhDdKYS"  >
<path style="stroke: none; stroke-width: 1; stroke-dasharray: none; stroke-linecap: butt; stroke-dashoffset: 0; stroke-linejoin: miter; stroke-miterlimit: 4; fill: rgb(0,0,0); fill-rule: nonzero; opacity: 1;"  transform=" translate(-256, -256.0005)" d="M 454.001 107.548 L 446.81899999999996 107.548 C 445.19399999999996 90.92 431.14399999999995 77.888 414.1039999999999 77.888 C 408.8279999999999 77.888 403.7369999999999 79.134 399.16599999999994 81.46300000000001 C 391.6809999999999 75.21300000000001 382.11499999999995 71.649 372.21399999999994 71.649 C 359.74499999999995 71.649 348.53399999999993 77.12 340.83099999999996 85.775 C 336.10799999999995 83.988 331.07099999999997 83.045 325.914 83.045 C 324.322 83.045 322.729 83.142 321.14799999999997 83.316 C 313.587 76.892 303.93499999999995 73.285 293.904 73.285 C 284.501 73.285 275.575 76.372 268.317 81.96199999999999 C 257.528 74.14099999999999 244.59300000000002 69.916 231.031 69.916 C 220.231 69.916 209.82 72.592 200.493 77.705 C 193.43 72.689 184.905 69.916 176.152 69.916 C 161.44099999999997 69.916 148.24699999999999 77.41199999999999 140.68599999999998 89.36099999999999 C 134.06699999999998 87.097 127.07999999999998 85.92699999999999 120.04999999999998 85.92699999999999 C 100.61599999999999 85.92699999999999 82.21099999999998 94.96199999999999 70.20799999999998 109.96499999999999 C 66.89299999999999 109.18499999999999 63.426999999999985 108.96799999999999 60.024999999999984 109.36899999999999 C 55.496999999999986 105.66399999999999 49.77699999999999 103.57299999999998 43.79799999999999 103.57299999999998 C 37.88299999999999 103.57299999999998 32.249999999999986 105.59899999999998 27.74399999999999 109.22799999999998 C 12.284 110.202 0 123.093 0 138.8 C 0 152.872 9.858 164.679 23.03 167.691 C 11.352 179.553 4.766000000000002 195.499 4.766000000000002 212.333 C 4.766000000000002 226.448 9.392000000000003 240 17.917 251.093 C 16.021 257.192 15.057000000000002 263.529 15.057000000000002 270.007 C 15.057000000000002 301.227 37.654 327.702 68.105 332.826 C 70.38000000000001 334.711 72.72 336.52000000000004 75.10300000000001 338.242 L 75.10300000000001 353.91700000000003 C 75.10300000000001 369.115 82.935 383.317 95.46900000000001 391.53900000000004 L 95.46900000000001 433.0930000000001 C 95.46900000000001 438.0540000000001 99.49900000000001 442.08400000000006 104.46000000000001 442.08400000000006 L 166.738 442.08400000000006 C 171.699 442.08400000000006 175.72899999999998 438.0540000000001 175.72899999999998 433.0930000000001 L 175.72899999999998 391.54 C 183.99399999999997 386.113 190.212 378.09700000000004 193.49499999999998 368.899 C 203.90499999999997 375.149 215.85399999999998 378.508 228.20299999999997 378.508 C 238.24499999999998 378.508 247.95099999999996 376.33099999999996 256.84499999999997 372.15999999999997 C 260.344 379.99199999999996 266.06399999999996 386.77299999999997 273.311 391.53999999999996 L 273.311 433.09399999999994 C 273.311 438.05499999999995 277.34099999999995 442.0849999999999 282.30199999999996 442.0849999999999 L 344.46 442.0849999999999 C 349.43199999999996 442.0849999999999 353.462 438.05499999999995 353.462 433.09399999999994 L 353.462 391.54 C 365.985 383.31800000000004 373.817 369.11600000000004 373.817 353.918 L 373.817 350.43 C 401.885 343.508 422.196 318.192 422.196 288.575 C 422.196 286.896 422.12 285.195 421.99 283.49399999999997 C 430.212 275.62899999999996 434.98900000000003 264.65599999999995 434.98900000000003 253.11899999999997 C 434.98900000000003 243.00099999999998 431.26200000000006 233.16499999999996 424.65500000000003 225.55999999999997 C 424.622 224.89899999999997 424.56800000000004 224.22799999999998 424.52500000000003 223.56699999999998 L 454.00100000000003 223.56699999999998 C 485.97900000000004 223.56699999999998 512 197.54699999999997 512 165.558 C 512 133.568 485.98 107.548 454.001 107.548 z M 341.579 124.079 C 346.584 123.386 350.278 119.085 350.213 114.03699999999999 C 350.213 113.89599999999999 350.202 113.755 350.19100000000003 113.571 C 350.245 101.471 360.103 91.63499999999999 372.21400000000006 91.63499999999999 C 379.244 91.63499999999999 385.7010000000001 94.88499999999999 389.90400000000005 100.54999999999998 C 391.63700000000006 102.87899999999998 394.29100000000005 104.34199999999998 397.1940000000001 104.55799999999998 C 400.0970000000001 104.76399999999998 402.93500000000006 103.71299999999998 404.9940000000001 101.65499999999997 C 407.4210000000001 99.21799999999998 410.6600000000001 97.88499999999998 414.1040000000001 97.88499999999998 C 421.2100000000001 97.88499999999998 426.9840000000001 103.65899999999998 426.9840000000001 110.76499999999997 C 426.9840000000001 112.08699999999997 426.4100000000001 114.58899999999997 426.3990000000001 114.61099999999998 C 424.7630000000001 119.84299999999998 419.86700000000013 123.64499999999998 414.1040000000001 123.64499999999998 C 411.2980000000001 123.64499999999998 408.6230000000001 122.74599999999998 406.34800000000007 121.02299999999998 C 404.0300000000001 119.26799999999999 401.06200000000007 118.60699999999999 398.22300000000007 119.21399999999998 C 395.3740000000001 119.83099999999999 392.93700000000007 121.64099999999999 391.55000000000007 124.19699999999999 C 390.2180000000001 126.624 388.4630000000001 128.75799999999998 386.32900000000006 130.545 C 382.4510000000001 133.784 381.60600000000005 139.40599999999998 384.3570000000001 143.642 C 388.9500000000001 150.727 391.3660000000001 158.938 391.3660000000001 167.387 C 391.3660000000001 174.352 389.7740000000001 181.025 386.6100000000001 187.211 C 384.4540000000001 191.45700000000002 385.58100000000013 196.63500000000002 389.31800000000015 199.59300000000002 C 392.43800000000016 202.06300000000002 394.22500000000014 205.735 394.22500000000014 209.68900000000002 C 394.22500000000014 216.79500000000002 388.45100000000014 222.56900000000002 381.34500000000014 222.56900000000002 C 376.34000000000015 222.56900000000002 371.8990000000001 219.752 369.7210000000001 215.20300000000003 C 368.04200000000014 211.66100000000003 364.4890000000001 209.51600000000002 360.70800000000014 209.51600000000002 C 359.9060000000001 209.51600000000002 351.21800000000013 211.11900000000003 347.63300000000015 211.11900000000003 C 323.5190000000002 211.11900000000003 303.89000000000016 191.50100000000003 303.89000000000016 167.38700000000003 C 303.892 145.668 320.097 127.047 341.579 124.079 z M 126.581 424.092 L 113.46300000000001 424.092 L 113.46300000000001 398.364 C 115.63000000000001 398.68899999999996 117.81800000000001 398.86199999999997 120.049 398.86199999999997 C 122.259 398.86199999999997 124.436 398.68899999999996 126.581 398.37499999999994 L 126.581 424.092 z M 132.041 378.053 C 131.911 378.10699999999997 123.971 380.87 120.04899999999999 380.87 C 115.96499999999999 380.87 112.03299999999999 379.982 108.35999999999999 378.216 C 99.08699999999999 373.753 93.09699999999998 364.22 93.09699999999998 353.918 L 93.09699999999998 349.173 C 99.23899999999998 352.26 105.61999999999998 354.871 112.19499999999998 356.951 C 122.96299999999998 360.35200000000003 134.11999999999998 362.33500000000004 145.45199999999997 362.855 C 144.34699999999998 366.007 142.66799999999998 368.96500000000003 140.44699999999997 371.53200000000004 C 138.085 374.261 135.258 376.45 132.041 378.053 z M 157.747 424.092 L 144.61800000000002 424.092 L 144.61800000000002 398.375 C 146.76300000000003 398.689 148.95100000000002 398.862 151.16100000000003 398.862 C 153.38200000000003 398.862 155.58100000000002 398.689 157.74700000000004 398.36400000000003 L 157.74700000000004 424.092 z M 162.838 378.215 C 160.769 379.212 158.602 379.916 156.382 380.35999999999996 C 159.61 375.919 161.983 370.94599999999997 163.412 365.68199999999996 C 164.15900000000002 365.72499999999997 164.918 365.74699999999996 165.66500000000002 365.74699999999996 C 169.15300000000002 365.74699999999996 172.58700000000002 365.31399999999996 175.92400000000004 364.47999999999996 C 173.389 370.383 168.796 375.345 162.838 378.215 z M 304.314 424.092 L 291.293 424.092 L 291.293 398.364 C 293.47 398.68899999999996 295.669 398.86199999999997 297.89 398.86199999999997 C 300.067 398.86199999999997 302.20099999999996 398.68899999999996 304.31399999999996 398.39599999999996 L 304.31399999999996 424.092 z M 308.42 378.724 C 305.105 380.143 301.574 380.86899999999997 297.891 380.86899999999997 C 293.807 380.86899999999997 289.875 379.981 286.213 378.215 C 279.78900000000004 375.128 274.904 369.57 272.531 363.006 L 294.305 363.006 C 304.444 363.006 314.46500000000003 361.81399999999996 324.225 359.529 C 323.283 363.938 321.26800000000003 368.076 318.278 371.543 C 316.187 373.969 309.146 378.237 308.42 378.724 z M 335.469 424.092 L 322.47 424.092 L 322.47 398.397 C 324.572 398.68899999999996 326.716 398.863 328.88300000000004 398.863 C 331.11500000000007 398.863 333.30300000000005 398.69 335.46900000000005 398.365 L 335.46900000000005 424.092 z M 340.571 378.215 C 338.53400000000005 379.20099999999996 336.411 379.89399999999995 334.23400000000004 380.327 C 339.79100000000005 372.679 342.824 363.439 342.824 353.917 L 342.824 353.679 C 344.59000000000003 352.964 346.334 352.227 348.05600000000004 351.44699999999995 C 350.634 351.86999999999995 353.23400000000004 352.12899999999996 355.82300000000004 352.23799999999994 C 355.824 352.238 356.94 370.199 340.571 378.215 z M 405.633 271.133 C 402.46999999999997 273.365 400.86699999999996 277.221 401.53799999999995 281.034 C 401.98199999999997 283.558 402.21 286.104 402.21 288.574 C 402.21 310.749 385.63599999999997 329.42400000000004 363.63399999999996 332.01300000000003 C 358.75899999999996 332.598 353.80899999999997 332.34900000000005 348.93399999999997 331.266 C 346.73499999999996 330.76800000000003 344.428 331.03900000000004 342.402 332.024 C 338.589 333.876 334.602 335.523 330.551 336.931 C 318.92699999999996 340.972 306.72999999999996 343.019 294.305 343.019 L 267.548 343.019 C 265.013 343.019 262.565 343.983 260.712 345.716 C 259.325 347.016 257.82 348.25100000000003 256.238 349.399 C 248.059 355.368 238.364 358.52 228.203 358.52 C 216.114 358.52 204.566 353.959 195.69400000000002 345.69399999999996 C 193.842 343.972 191.41500000000002 343.018 188.88000000000002 343.018 L 178.64300000000003 343.018 C 177.24600000000004 343.018 175.85900000000004 343.30999999999995 174.59200000000004 343.87399999999997 C 169.68500000000003 346.04099999999994 164.19300000000004 346.376 158.94900000000004 344.70799999999997 C 158.21200000000005 344.481 154.09600000000003 343.018 152.68800000000005 343.018 C 152.68800000000005 343.018 128.96400000000006 341.296 118.21800000000005 337.89399999999995 C 108.10000000000005 334.6979999999999 98.51300000000005 330.05099999999993 89.68400000000005 324.07099999999997 C 85.96800000000006 321.558 82.36100000000005 318.77399999999994 78.97000000000006 315.816 C 77.45300000000006 314.49399999999997 75.56900000000006 313.65999999999997 73.56400000000005 313.42199999999997 C 51.60600000000005 310.82199999999995 35.04300000000005 292.157 35.04300000000005 270.00399999999996 C 35.04300000000005 264.08899999999994 36.20200000000005 258.34799999999996 38.48800000000005 252.96399999999997 C 40.03700000000005 249.32399999999998 39.29000000000005 245.10999999999996 36.581000000000046 242.22899999999998 C 28.955000000000044 234.08299999999997 24.752000000000045 223.46699999999998 24.752000000000045 212.331 C 24.752000000000045 199.278 30.526000000000046 187.004 40.590000000000046 178.66299999999998 C 42.843000000000046 176.789 44.16500000000005 174.016 44.197000000000045 171.09099999999998 C 44.240000000000045 167.61399999999998 45.07400000000005 164.29899999999998 46.67800000000005 161.22199999999998 C 48.65000000000005 157.42 47.98900000000005 152.783 45.02100000000004 149.69599999999997 C 42.06400000000004 146.60899999999998 37.46000000000004 145.74199999999996 33.58200000000004 147.55099999999996 C 32.325000000000045 148.13599999999997 30.993000000000045 148.43899999999996 29.617000000000044 148.43899999999996 C 24.309000000000044 148.43899999999996 19.987000000000045 144.11699999999996 19.987000000000045 138.79799999999997 C 19.987000000000045 133.47899999999998 24.309000000000044 129.15699999999998 29.617000000000047 129.15699999999998 C 29.942000000000046 129.15699999999998 35.846000000000046 130.468 39.44200000000005 125.63599999999998 C 40.46000000000005 124.25999999999998 42.10700000000005 123.55599999999998 43.797000000000054 123.55599999999998 C 45.64900000000005 123.55599999999998 47.39300000000006 124.47699999999999 48.455000000000055 126.02599999999998 C 51.03300000000006 129.796 55.84300000000005 131.32299999999998 60.13300000000005 129.75199999999998 C 62.99300000000005 128.701 66.01500000000006 129.05899999999997 68.53900000000006 130.64 C 70.81400000000006 132.081 73.57600000000006 132.53599999999997 76.19800000000006 131.90699999999998 C 78.82000000000006 131.279 81.07300000000006 129.62099999999998 82.44800000000006 127.30299999999998 C 90.31300000000006 114.10899999999998 104.72000000000006 105.90799999999999 120.04900000000006 105.90799999999999 C 127.40400000000007 105.90799999999999 134.40200000000007 107.67399999999999 140.84800000000007 111.15099999999998 C 143.48000000000008 112.56999999999998 146.60000000000008 112.74299999999998 149.36300000000006 111.61699999999998 C 152.13600000000005 110.48999999999998 154.24900000000005 108.18299999999998 155.13700000000006 105.33399999999997 C 158.01900000000006 96.10499999999998 166.46800000000005 89.89699999999998 176.15300000000005 89.89699999999998 C 182.31700000000004 89.89699999999998 188.03700000000003 92.38899999999998 192.26100000000005 96.91699999999997 C 195.69500000000005 100.59999999999997 201.35000000000005 101.15299999999998 205.42300000000006 98.19499999999998 C 212.91900000000007 92.76799999999997 221.77000000000007 89.89699999999998 231.03200000000007 89.89699999999998 C 242.61200000000008 89.89699999999998 253.53200000000007 94.39299999999997 261.7750000000001 102.53899999999997 C 263.8010000000001 104.54299999999998 266.57400000000007 105.59399999999998 269.4120000000001 105.40999999999997 C 272.2500000000001 105.23699999999997 274.8830000000001 103.86099999999996 276.6370000000001 101.63999999999997 C 280.8510000000001 96.32099999999997 287.1450000000001 93.26599999999998 293.9040000000001 93.26599999999998 C 300.1980000000001 93.26599999999998 306.1990000000001 95.97399999999998 310.3810000000001 100.68599999999998 C 312.8730000000001 103.49199999999998 316.7180000000001 104.67199999999998 320.3470000000001 103.74099999999999 C 322.1670000000001 103.26399999999998 324.0410000000001 103.03699999999999 325.9150000000001 103.03699999999999 C 327.78900000000004 103.03699999999999 329.62000000000006 103.27499999999999 331.3960000000001 103.72999999999999 C 331.22300000000007 104.445 331.06000000000006 105.16 330.93000000000006 105.886 C 303.6310000000001 113.317 283.9050000000001 138.45999999999998 283.9050000000001 167.384 C 283.9050000000001 202.515 312.4930000000001 231.10199999999998 347.63400000000007 231.10199999999998 C 350.4290000000001 231.10199999999998 353.22400000000005 230.91799999999998 355.99700000000007 230.55999999999997 C 362.16100000000006 238.01299999999998 371.46600000000007 242.55199999999996 381.34600000000006 242.55199999999996 C 390.71600000000007 242.55199999999996 399.1770000000001 238.60899999999995 405.1670000000001 232.30399999999997 C 405.64400000000006 234.09099999999998 406.60800000000006 235.73799999999997 407.9840000000001 237.027 C 412.5120000000001 241.25199999999998 415.0040000000001 246.96099999999998 415.0040000000001 253.11399999999998 C 415.003 260.268 411.494 267.006 405.633 271.133 z M 454.001 203.58 L 413.649 203.58 C 412.685 198.478 410.54 193.70100000000002 407.366 189.60600000000002 C 408.828 185.717 410.60499999999996 177.22400000000002 410.627 177.02900000000002 C 411.104 173.866 411.36400000000003 170.64900000000003 411.36400000000003 167.38800000000003 C 411.36400000000003 158.85200000000003 409.663 150.48900000000003 406.39200000000005 142.72200000000004 C 408.89400000000006 143.32900000000004 411.47300000000007 143.63200000000003 414.1050000000001 143.63200000000003 C 426.10800000000006 143.63200000000003 436.6260000000001 137.16500000000002 442.36800000000005 127.53500000000003 L 454.00200000000007 127.53500000000003 C 474.9630000000001 127.53500000000003 492.01400000000007 144.586 492.01400000000007 165.55800000000002 C 492.014 186.519 474.963 203.58 454.001 203.58 z" stroke-linecap="round" />
</g>
		<g transform="matrix(1.5625 0 0 1.5625 274.83125 -148.4421875)" id="6gaHCj9s50cBdpDviCKMF"  >
<path style="stroke: none; stroke-width: 1; stroke-dasharray: none; stroke-linecap: butt; stroke-dashoffset: 0; stroke-linejoin: miter; stroke-miterlimit: 4; fill: rgb(0,0,0); fill-rule: nonzero; opacity: 1;"  transform=" translate(-11.432, -11.432)" d="M 0 11.432 C 0 5.11828 5.11828 0 11.432 0 C 17.74572 0 22.864 5.11828 22.864 11.432 C 22.864 17.74572 17.74572 22.864 11.432 22.864 C 5.11828 22.864 0 17.74572 0 11.432 z" stroke-linecap="round" />
</g>
		<g transform="matrix(1.5625 0 0 1.5625 -249.7886525046 -111.3612818388)" id="ofSCuv2NQ15I0kebIATk1"  >
<path style="stroke: none; stroke-width: 1; stroke-dasharray: none; stroke-linecap: butt; stroke-dashoffset: 0; stroke-linejoin: miter; stroke-miterlimit: 4; fill: rgb(0,0,0); fill-rule: nonzero; opacity: 1;"  transform=" translate(-96.135262397, -184.7287796232)" d="M 106.787 168.153 C 99.13900000000001 166.112 90.912 168.315 85.316 173.911 C 79.715 179.513 77.512 187.741 79.565 195.389 C 80.64399999999999 199.405 84.276 202.053 88.246 202.053 C 89.017 202.053 89.803 201.953 90.58399999999999 201.743 C 95.38199999999999 200.45499999999998 98.22699999999999 195.522 96.93799999999999 190.724 C 96.53999999999999 189.24499999999998 96.951 187.71599999999998 98.03499999999998 186.631 C 99.11999999999998 185.546 100.65499999999999 185.131 102.14299999999999 185.533 C 106.939 186.814 111.86999999999999 183.964 113.15299999999999 179.164 C 114.437 174.365 111.586 169.435 106.787 168.153 z" stroke-linecap="round" />
</g>
		<g transform="matrix(1.5625 0 0 1.5625 -68.9779504532 -42.7166862277)" id="3RvBxCNg_7Qlp81WSA4Ep"  >
<path style="stroke: none; stroke-width: 1; stroke-dasharray: none; stroke-linecap: butt; stroke-dashoffset: 0; stroke-linejoin: miter; stroke-miterlimit: 4; fill: rgb(0,0,0); fill-rule: nonzero; opacity: 1;"  transform=" translate(-211.8541117099, -228.6613208142)" d="M 223.789 216.732 C 217.362 210.305 207.911 207.769 199.12099999999998 210.11599999999999 C 194.32199999999997 211.39899999999997 191.47099999999998 216.32799999999997 192.75199999999998 221.12599999999998 C 194.03499999999997 225.926 198.96699999999998 228.77599999999998 203.76399999999998 227.49499999999998 C 206.368 226.79999999999998 209.16699999999997 227.54799999999997 211.07 229.45099999999996 C 212.971 231.35199999999998 213.72 234.14399999999998 213.023 236.73799999999997 C 211.734 241.53499999999997 214.579 246.46799999999996 219.376 247.75699999999998 C 220.15800000000002 247.96699999999998 220.942 248.06699999999998 221.715 248.06699999999998 C 225.684 248.06699999999998 229.317 245.41899999999998 230.395 241.403 C 232.754 232.62 230.222 223.165 223.789 216.732 z" stroke-linecap="round" />
</g>
		<g transform="matrix(1.5625 0 0 1.5625 -52.6894746283 -179.3276237277)" id="AJAC-iXlnkeKGQ8PTY2lM"  >
<path style="stroke: none; stroke-width: 1; stroke-dasharray: none; stroke-linecap: butt; stroke-dashoffset: 0; stroke-linejoin: miter; stroke-miterlimit: 4; fill: rgb(0,0,0); fill-rule: nonzero; opacity: 1;"  transform=" translate(-222.2787362379, -141.2303208142)" d="M 235.012 122.684 C 226.226 120.337 216.773 122.87299999999999 210.345 129.3 C 203.91 135.734 201.379 145.18800000000002 203.738 153.973 C 204.816 157.99 208.449 160.637 212.418 160.637 C 213.19 160.637 213.976 160.537 214.757 160.327 C 219.554 159.038 222.4 154.105 221.11 149.308 C 220.413 146.714 221.162 143.922 223.06400000000002 142.01999999999998 C 224.966 140.118 227.76500000000001 139.367 230.36900000000003 140.06499999999997 C 235.16600000000003 141.34599999999998 240.098 138.49499999999998 241.38000000000002 133.69499999999996 C 242.663 128.897 239.812 123.967 235.012 122.684 z" stroke-linecap="round" />
</g>
		<g transform="matrix(1.5625 0 0 1.5625 -204.496521159 47.2244879445)" id="U_C2PbNQM2UwoDOasXpzf"  >
<path style="stroke: none; stroke-width: 1; stroke-dasharray: none; stroke-linecap: butt; stroke-dashoffset: 0; stroke-linejoin: miter; stroke-miterlimit: 4; fill: rgb(0,0,0); fill-rule: nonzero; opacity: 1;"  transform=" translate(-125.1222264583, -286.2236722845)" d="M 137.056 274.292 C 130.626 267.86499999999995 121.17600000000002 265.33 112.38700000000001 267.679 C 107.58800000000001 268.962 104.73800000000001 273.892 106.02100000000002 278.691 C 107.30400000000002 283.48999999999995 112.23200000000001 286.344 117.03400000000002 285.05699999999996 C 119.63600000000002 284.36199999999997 122.43500000000002 285.11099999999993 124.33700000000002 287.01199999999994 C 126.23800000000001 288.91399999999993 126.98800000000001 291.70699999999994 126.29100000000001 294.30099999999993 C 125.00200000000001 299.09799999999996 127.84800000000001 304.03099999999995 132.644 305.31999999999994 C 133.42600000000002 305.5299999999999 134.21 305.62999999999994 134.983 305.62999999999994 C 138.952 305.62999999999994 142.585 302.9819999999999 143.663 298.96599999999995 C 146.022 290.182 143.491 280.728 137.056 274.292 z" stroke-linecap="round" />
</g>
		<g transform="matrix(1.5625 0 0 1.5625 89.8029431543 47.9902806612)" id="N9B7M8M7u7feTHf0JSyHA"  >
<path style="stroke: none; stroke-width: 1; stroke-dasharray: none; stroke-linecap: butt; stroke-dashoffset: 0; stroke-linejoin: miter; stroke-miterlimit: 4; fill: rgb(0,0,0); fill-rule: nonzero; opacity: 1;"  transform=" translate(-313.4738836188, -286.7137796232)" d="M 324.125 270.139 C 316.476 268.098 308.247 270.301 302.654 275.897 C 297.053 281.498 294.85 289.727 296.903 297.37399999999997 C 297.982 301.39099999999996 301.61400000000003 304.037 305.584 304.037 C 306.355 304.037 307.141 303.93699999999995 307.922 303.727 C 312.71900000000005 302.43899999999996 315.565 297.506 314.276 292.70799999999997 C 313.88 291.22999999999996 314.29 289.7 315.374 288.61499999999995 C 316.458 287.52899999999994 317.994 287.11599999999993 319.48100000000005 287.51599999999996 C 324.2780000000001 288.799 329.21100000000007 285.94699999999995 330.49300000000005 281.14699999999993 C 331.775 276.352 328.925 271.42 324.125 270.139 z" stroke-linecap="round" />
</g>
</g>
</g>
<g transform="matrix(-0.5290414174 0 0 0.5290414174 134.7095241289 189.5191324755)" id="CgAVX3c642iPffi0BraBF"  >
<path style="stroke: none; stroke-width: 1; stroke-dasharray: none; stroke-linecap: butt; stroke-dashoffset: 0; stroke-linejoin: miter; stroke-miterlimit: 4; fill: rgb(0,0,0); fill-rule: nonzero; opacity: 1;"  transform=" translate(-148.5, -148.5005)" d="M 297 136.323 C 297 109.75200000000001 277.535 87.64000000000001 252.115 83.50200000000001 C 248.05 66.36500000000001 232.619 53.58100000000001 214.258 53.58100000000001 C 202.353 53.58100000000001 191.18300000000002 59.06500000000001 183.865 68.21100000000001 C 174.56400000000002 68.48600000000002 166.08700000000002 72.05700000000002 159.52700000000002 77.775 C 149.99 71.71700000000001 138.69100000000003 68.194 126.58100000000002 68.194 C 99.66100000000002 68.194 75.74100000000001 86.06 67.77600000000001 111.376 C 53.04600000000001 117.91900000000001 42.64200000000001 131.232 39.769000000000005 146.94 C 17.169 151.124 0 170.982 0 194.775 C 0 221.598 21.822 243.42000000000002 48.645 243.42000000000002 L 191.52700000000002 243.42000000000002 C 223.062 243.42000000000002 249.125 219.609 252.722 189.025 C 277.841 184.633 297 162.68 297 136.323 z M 191.526 224.065 L 48.645 224.065 C 32.494 224.065 19.355000000000004 210.926 19.355000000000004 194.775 C 19.355000000000004 178.62400000000002 32.494 165.484 48.645 165.484 C 53.989000000000004 165.484 58.322 161.151 58.322 155.80700000000002 C 58.322 142.973 66.536 131.75000000000003 78.763 127.88100000000001 C 82.063 126.83600000000001 84.554 124.10800000000002 85.295 120.72700000000002 C 89.511 101.50300000000001 106.873 87.55000000000001 126.581 87.55000000000001 C 149.894 87.55000000000001 168.861 106.51600000000002 168.861 129.83 C 168.861 130.14100000000002 168.849 130.449 168.838 130.758 L 168.82399999999998 131.18 C 168.73 134.225 170.07399999999998 137.136 172.45399999999998 139.037 C 174.83399999999997 140.939 177.97199999999998 141.61100000000002 180.91799999999998 140.848 C 184.36199999999997 139.95800000000003 187.93099999999998 139.507 191.527 139.507 C 214.84099999999998 139.507 233.807 158.473 233.807 181.786 C 233.806 205.098 214.84 224.065 191.526 224.065 z M 251.915 169.429 C 246.177 141.345 221.28 120.152 191.52599999999998 120.152 C 190.17399999999998 120.152 188.82199999999997 120.196 187.47599999999997 120.284 C 185.74799999999996 109.21600000000001 181.06299999999996 99.114 174.25799999999998 90.81400000000001 C 177.34799999999998 88.75800000000001 181.04799999999997 87.55000000000001 185.03099999999998 87.55000000000001 C 185.843 87.55000000000001 186.67399999999998 87.60600000000001 187.57399999999998 87.72200000000001 C 191.481 88.22600000000001 195.29299999999998 86.31200000000001 197.23 82.88700000000001 C 200.701 76.74900000000001 207.226 72.936 214.257 72.936 C 225.036 72.936 233.805 81.70500000000001 233.805 92.48400000000001 C 233.805 97.828 238.138 102.161 243.482 102.161 C 262.319 102.161 277.644 117.486 277.644 136.323 C 277.645 152.251 266.687 165.665 251.915 169.429 z" stroke-linecap="round" />
</g>
<g transform="matrix(0.3555308455 0 0 0.3555308455 420 300)" id="ak5zS-zBXc-5ipz_IBEiv"  >
<g style=""   >
		<g transform="matrix(1.5624847414 0 0 1.5624847414 -0.0046874542 -116.6605794865)" id="wvihxe-xHWmy-2kvpxSSt"  >
<path style="stroke: none; stroke-width: 1; stroke-dasharray: none; stroke-linecap: butt; stroke-dashoffset: 0; stroke-linejoin: miter; stroke-miterlimit: 4; fill: rgb(0,0,0); fill-rule: nonzero; opacity: 1;"  transform=" translate(-255.9995, -181.339)" d="M 309.333 106.672 L 202.666 106.672 C 196.778 106.672 191.999 111.451 191.999 117.339 L 191.999 245.339 C 191.999 251.227 196.778 256.006 202.666 256.006 L 309.33299999999997 256.006 C 315.22099999999995 256.006 319.99999999999994 251.22699999999998 319.99999999999994 245.33899999999997 L 319.99999999999994 117.33899999999997 C 319.999 111.451 315.221 106.672 309.333 106.672 z M 298.666 234.672 L 213.333 234.672 L 213.333 128.005 L 298.666 128.005 L 298.666 234.672 z" stroke-linecap="round" />
</g>
		<g transform="matrix(1.5624847414 0 0 1.5624847414 0.0004657375 0)" id="Sdl2qJhDd-Db9Gw6gnhh9"  >
<path style="stroke: none; stroke-width: 1; stroke-dasharray: none; stroke-linecap: butt; stroke-dashoffset: 0; stroke-linejoin: miter; stroke-miterlimit: 4; fill: rgb(0,0,0); fill-rule: nonzero; opacity: 1;"  transform=" translate(-256.0027980749, -256.0025)" d="M 510.975 262.128 L 425.642 80.795 C 424.575 78.534 422.762 76.72 420.522 75.675 L 260.522 1.0079999999999956 C 257.642 -0.3360000000000045 254.357 -0.3360000000000045 251.477 1.0079999999999956 L 91.477 75.675 C 89.23700000000001 76.72 87.424 78.53399999999999 86.357 80.795 L 1.023 262.128 C -0.534 265.435 -0.278 269.296 1.6629999999999998 272.389 C 3.604 275.482 7.018000000000001 277.338 10.666 277.338 L 42.666 277.338 L 42.666 501.338 C 42.666 507.226 47.44499999999999 512.005 53.333 512.005 L 458.66600000000005 512.005 C 464.55400000000003 512.005 469.333 507.226 469.333 501.338 L 469.333 277.338 L 501.333 277.338 C 504.98100000000005 277.338 508.37300000000005 275.482 510.336 272.389 C 512.298 269.296 512.533 265.435 510.975 262.128 z M 235.647 416.005 L 127.999 482.245 L 127.999 349.765 L 235.647 416.005 z M 155.029 341.339 L 356.97 341.339 L 255.99900000000002 403.483 L 155.029 341.339 z M 155.029 490.672 L 256 428.528 L 356.971 490.672 L 155.029 490.672 z M 383.999 482.245 L 276.351 416.005 L 383.999 349.765 L 383.999 482.245 z M 458.666 256.005 C 452.778 256.005 447.999 260.784 447.999 266.67199999999997 L 447.999 490.67199999999997 L 405.332 490.67199999999997 L 405.332 330.67199999999997 C 405.332 330.416 405.204 330.181 405.183 329.92499999999995 C 405.14 329.19999999999993 404.948 328.496 404.756 327.792 C 404.56399999999996 327.109 404.351 326.469 404.03099999999995 325.851 C 403.90299999999996 325.616 403.90299999999996 325.339 403.75399999999996 325.104 C 403.54099999999994 324.741 403.17799999999994 324.549 402.943 324.229 C 402.474 323.632 402.00399999999996 323.098 401.428 322.62899999999996 C 400.916 322.20199999999994 400.404 321.861 399.828 321.56199999999995 C 399.20899999999995 321.19899999999996 398.59099999999995 320.92199999999997 397.887 320.68699999999995 C 397.226 320.47399999999993 396.564 320.36699999999996 395.882 320.282 C 395.455 320.197 395.093 320.005 394.666 320.005 L 117.333 320.005 C 116.90599999999999 320.005 116.544 320.197 116.117 320.26099999999997 C 115.41300000000001 320.34599999999995 114.77300000000001 320.453 114.09 320.66599999999994 C 113.407 320.87899999999996 112.789 321.17799999999994 112.17 321.54099999999994 C 111.59400000000001 321.86099999999993 111.08200000000001 322.20199999999994 110.57000000000001 322.62899999999996 C 109.99400000000001 323.11999999999995 109.525 323.65299999999996 109.055 324.24999999999994 C 108.799 324.56999999999994 108.45800000000001 324.76199999999994 108.244 325.12499999999994 C 108.095 325.35999999999996 108.095 325.63699999999994 107.967 325.87199999999996 C 107.647 326.491 107.434 327.15199999999993 107.242 327.835 C 107.02900000000001 328.56 106.858 329.243 106.815 329.96799999999996 C 106.794 330.181 106.666 330.41599999999994 106.666 330.67199999999997 L 106.666 490.67199999999997 L 63.999 490.67199999999997 L 63.999 266.67199999999997 C 63.999 260.784 59.22 256.005 53.332 256.005 L 27.477 256.005 L 104 93.381 L 256 22.447999999999993 L 408 93.36 L 484.523 256.005 L 458.666 256.005 z" stroke-linecap="round" />
</g>
</g>
</g>
<g transform="matrix(1 0 0 1 153.8727496628 370)" id="-pbegi7o3baC9POVeK95C"  >
<path style="stroke: rgb(0,0,0); stroke-width: 5; stroke-dasharray: none; stroke-linecap: butt; stroke-dashoffset: 0; stroke-linejoin: miter; stroke-miterlimit: 4; fill: rgb(255,255,255); fill-opacity: 0; fill-rule: nonzero; opacity: 1;"  transform=" translate(0, 0)" d="M -153.87275 30 C -153.87275 30 -17.69587999999999 -16.27451 153.87275 -30" stroke-linecap="round" />
</g>
<g transform="matrix(1 0 0 1 586.617847702 377.2582444933)" id="vQ3tEtkd3GwPyAZShCL9o"  >
<path style="stroke: rgb(0,0,0); stroke-width: 5; stroke-dasharray: none; stroke-linecap: butt; stroke-dashoffset: 0; stroke-linejoin: miter; stroke-miterlimit: 4; fill: rgb(255,255,255); fill-opacity: 0; fill-rule: nonzero; opacity: 1;"  transform=" translate(0, 0)" d="M 53.38215 22.74176 C 53.38215 22.74176 17.20608 -8.03587 -53.38215 -22.741750000000003" stroke-linecap="round" />
</g>
<g transform="matrix(1.2395603752 0 0 1.2395603752 220 414.4331939657)" id="JifPaHuuAk7uK9ZET-P2k"  >
<path style="stroke: none; stroke-width: 1; stroke-dasharray: none; stroke-linecap: butt; stroke-dashoffset: 0; stroke-linejoin: miter; stroke-miterlimit: 4; fill: rgb(0,0,0); fill-rule: nonzero; opacity: 1;"  transform=" translate(-214.0975, -375.881)" d="M 217.391 358.408 L 216.195 382.268 L 212.117 382.268 L 210.898 358.408 L 217.391 358.408 Z M 210.617 389.744 L 210.617 389.744 Q 210.617 388.01 211.531 387.108 Q 212.445 386.205 214.133 386.205 L 214.133 386.205 Q 215.797 386.205 216.688 387.143 Q 217.578 388.08 217.578 389.744 L 217.578 389.744 Q 217.578 391.408 216.676 392.381 Q 215.773 393.354 214.133 393.354 L 214.133 393.354 Q 212.469 393.354 211.543 392.416 Q 210.617 391.479 210.617 389.744 Z" stroke-linecap="round" />
</g>
<g transform="matrix(-2.9467585264 0 0 2.9467585264 335.7850303234 180)" id="YkduaCP_54TwW6SbOTh_O"  >
<path style="stroke: none; stroke-width: 1; stroke-dasharray: none; stroke-linecap: butt; stroke-dashoffset: 0; stroke-linejoin: miter; stroke-miterlimit: 4; fill: rgb(0,0,0); fill-rule: nonzero; opacity: 1;"  transform=" translate(-8.2500930916, -7.9996199652)" d="M 9.32 15.653 C 9.130522632204112 15.407763152741653 9.097158296658737 15.076059584238227 9.234 14.798 C 9.41 14.456 9.479 14.065 9.434 13.68 C 9.39712909938992 13.405293407480174 9.30639482404911 13.140566813882828 9.167 12.901 C 9.029406259508054 12.664563554898777 8.845377867578701 12.458424542867006 8.626 12.295 C 7.878341853683471 11.733091713813254 7.353695874481717 10.924690549371388 7.145 10.012999999999998 C 5.436999999999999 12.251999999999999 6.092 13.523 6.909999999999999 14.643 C 7.107059069137871 14.912761865103679 7.101345189871979 15.280490809287151 6.895999999999999 15.544 C 6.79415454275021 15.673781005150419 6.657508610851009 15.771930240499337 6.501999999999999 15.827 C 6.3482894007018285 15.880965718463743 6.182181840684131 15.88895834164451 6.023999999999999 15.85 C 4.918999999999999 15.58 3.878999999999999 15.065999999999999 3.173999999999999 14.247 C 2.7743673317924955 13.792072255628117 2.466694172582646 13.264001877514081 2.2679999999999993 12.692 C 2.0670423358891825 12.11512929509191 1.977785600843168 11.50526483548093 2.004999999999999 10.895000000000001 C 2.004999999999999 10.895 1.871999999999999 8.431999999999999 4.841999999999999 6.018999999999999 C 4.841999999999999 6.018999999999999 8.351999999999999 3.040999999999999 7.133999999999999 0.8389999999999995 C 7.0424049936279385 0.6179342799786052 7.085974456693217 0.3639087497855128 7.245999999999999 0.1859999999999995 C 7.4021230330615255 0.010917964981374484 7.651078816766342 -0.04782441094897544 7.868999999999999 0.03899999999999948 L 8.014999999999999 0.0969999999999995 C 9.33707528135128 0.932707876923238 10.370384463896904 2.1545261670954305 10.974999999999996 3.5969999999999955 C 11.554999999999998 5.01 11.550999999999998 6.657 11.158999999999997 8.123999999999999 C 11.483999999999996 7.831999999999999 11.754999999999997 7.482999999999999 11.959999999999997 7.090999999999999 L 11.988999999999997 7.026999999999999 C 12.186999999999998 6.549999999999999 12.809999999999997 6.701999999999999 13.043999999999997 7.013999999999999 C 13.129999999999997 7.151 15.335999999999997 10.357 14.150999999999996 13.062 C 13.717740640260432 13.881547969582632 13.084918643661997 14.578683940835365 12.310999999999996 15.088999999999999 C 11.661614988174675 15.519935779704381 10.935975851613328 15.82302078856747 10.172999999999998 15.982 C 10.01529976458096 16.015202740092654 9.851357321186674 16.002003984056675 9.700999999999997 15.943999999999999 C 9.549295925641351 15.885013754574429 9.417260253591126 15.784514161675308 9.319999999999997 15.654 z M 7.554 7.892 C 7.7475071768588935 7.7911477769170965 7.985987749244088 7.854453528859349 8.104000000000001 8.038 C 8.144 8.097 8.170000000000002 8.164 8.179 8.236 L 8.224 8.585 C 8.244 9.096 8.238 9.63 8.437 10.121 C 8.642999999999999 10.625 8.963 11.071 9.369 11.419 C 9.892040175752175 11.763162224813756 10.296918653918823 12.259487393738734 10.529 12.841 C 10.749 13.405000000000001 10.779 14.031 10.613 14.614 C 11.120873556055804 14.453803035962201 11.59290296897702 14.196733780148273 12.003 13.857000000000001 L 12.106 13.773000000000001 C 12.442 13.496000000000002 12.719 13.150000000000002 12.919 12.756000000000002 C 13.120000000000001 12.363000000000001 13.241 11.931000000000003 13.273 11.487000000000002 C 13.338 10.462000000000002 12.988999999999999 9.433000000000002 12.446 8.515000000000002 C 12.198 8.875000000000002 11.856 9.154000000000002 11.461 9.319000000000003 C 11.214 9.424000000000003 10.952 9.489000000000003 10.685 9.509000000000002 C 10.532073853093214 9.518839194412385 10.379577366032862 9.48410195362415 10.246 9.409000000000002 C 10.110365100742888 9.33192365010394 9.999132890722318 9.21826581556579 9.925 9.081000000000003 C 9.800637459648325 8.856654833570751 9.787701984259895 8.587227360480302 9.89 8.352000000000004 C 10.302000000000001 7.380000000000004 10.43 6.302000000000004 10.255 5.255000000000004 C 10.047840022884547 4.05713426281491 9.474134178238103 2.953047497234661 8.613000000000003 2.095000000000004 C 8.457 4.300000000000004 6.1960000000000015 6.353000000000004 5.732000000000001 6.795000000000004 C 5.66007620364402 6.862767443695495 5.585343967484701 6.927490898226333 5.508000000000001 6.989000000000004 C 3.0820000000000007 8.954000000000004 3.248000000000001 10.744000000000003 3.248000000000001 10.823000000000004 C 3.1998233316293496 11.534088148954929 3.359286661168641 12.243856302002362 3.7070000000000025 12.866000000000005 C 4.072000000000001 13.511000000000003 4.597000000000001 14.043000000000003 5.227000000000001 14.406000000000002 C 4.5 12.808 4.5 10.89 7.183 8.14 L 7.555 7.890000000000001 z" stroke-linecap="round" />
</g>
<g transform="matrix(2.9467585264 0 0 2.9467585264 486.5803516441 314.9517493337)" id="jelQASOC_LD5Y8-47Rzed"  >
<path style="stroke: none; stroke-width: 1; stroke-dasharray: none; stroke-linecap: butt; stroke-dashoffset: 0; stroke-linejoin: miter; stroke-miterlimit: 4; fill: rgb(0,0,0); fill-rule: nonzero; opacity: 1;"  transform=" translate(-8.2500930916, -7.9996199652)" d="M 9.32 15.653 C 9.130522632204112 15.407763152741653 9.097158296658737 15.076059584238227 9.234 14.798 C 9.41 14.456 9.479 14.065 9.434 13.68 C 9.39712909938992 13.405293407480174 9.30639482404911 13.140566813882828 9.167 12.901 C 9.029406259508054 12.664563554898777 8.845377867578701 12.458424542867006 8.626 12.295 C 7.878341853683471 11.733091713813254 7.353695874481717 10.924690549371388 7.145 10.012999999999998 C 5.436999999999999 12.251999999999999 6.092 13.523 6.909999999999999 14.643 C 7.107059069137871 14.912761865103679 7.101345189871979 15.280490809287151 6.895999999999999 15.544 C 6.79415454275021 15.673781005150419 6.657508610851009 15.771930240499337 6.501999999999999 15.827 C 6.3482894007018285 15.880965718463743 6.182181840684131 15.88895834164451 6.023999999999999 15.85 C 4.918999999999999 15.58 3.878999999999999 15.065999999999999 3.173999999999999 14.247 C 2.7743673317924955 13.792072255628117 2.466694172582646 13.264001877514081 2.2679999999999993 12.692 C 2.0670423358891825 12.11512929509191 1.977785600843168 11.50526483548093 2.004999999999999 10.895000000000001 C 2.004999999999999 10.895 1.871999999999999 8.431999999999999 4.841999999999999 6.018999999999999 C 4.841999999999999 6.018999999999999 8.351999999999999 3.040999999999999 7.133999999999999 0.8389999999999995 C 7.0424049936279385 0.6179342799786052 7.085974456693217 0.3639087497855128 7.245999999999999 0.1859999999999995 C 7.4021230330615255 0.010917964981374484 7.651078816766342 -0.04782441094897544 7.868999999999999 0.03899999999999948 L 8.014999999999999 0.0969999999999995 C 9.33707528135128 0.932707876923238 10.370384463896904 2.1545261670954305 10.974999999999996 3.5969999999999955 C 11.554999999999998 5.01 11.550999999999998 6.657 11.158999999999997 8.123999999999999 C 11.483999999999996 7.831999999999999 11.754999999999997 7.482999999999999 11.959999999999997 7.090999999999999 L 11.988999999999997 7.026999999999999 C 12.186999999999998 6.549999999999999 12.809999999999997 6.701999999999999 13.043999999999997 7.013999999999999 C 13.129999999999997 7.151 15.335999999999997 10.357 14.150999999999996 13.062 C 13.717740640260432 13.881547969582632 13.084918643661997 14.578683940835365 12.310999999999996 15.088999999999999 C 11.661614988174675 15.519935779704381 10.935975851613328 15.82302078856747 10.172999999999998 15.982 C 10.01529976458096 16.015202740092654 9.851357321186674 16.002003984056675 9.700999999999997 15.943999999999999 C 9.549295925641351 15.885013754574429 9.417260253591126 15.784514161675308 9.319999999999997 15.654 z M 7.554 7.892 C 7.7475071768588935 7.7911477769170965 7.985987749244088 7.854453528859349 8.104000000000001 8.038 C 8.144 8.097 8.170000000000002 8.164 8.179 8.236 L 8.224 8.585 C 8.244 9.096 8.238 9.63 8.437 10.121 C 8.642999999999999 10.625 8.963 11.071 9.369 11.419 C 9.892040175752175 11.763162224813756 10.296918653918823 12.259487393738734 10.529 12.841 C 10.749 13.405000000000001 10.779 14.031 10.613 14.614 C 11.120873556055804 14.453803035962201 11.59290296897702 14.196733780148273 12.003 13.857000000000001 L 12.106 13.773000000000001 C 12.442 13.496000000000002 12.719 13.150000000000002 12.919 12.756000000000002 C 13.120000000000001 12.363000000000001 13.241 11.931000000000003 13.273 11.487000000000002 C 13.338 10.462000000000002 12.988999999999999 9.433000000000002 12.446 8.515000000000002 C 12.198 8.875000000000002 11.856 9.154000000000002 11.461 9.319000000000003 C 11.214 9.424000000000003 10.952 9.489000000000003 10.685 9.509000000000002 C 10.532073853093214 9.518839194412385 10.379577366032862 9.48410195362415 10.246 9.409000000000002 C 10.110365100742888 9.33192365010394 9.999132890722318 9.21826581556579 9.925 9.081000000000003 C 9.800637459648325 8.856654833570751 9.787701984259895 8.587227360480302 9.89 8.352000000000004 C 10.302000000000001 7.380000000000004 10.43 6.302000000000004 10.255 5.255000000000004 C 10.047840022884547 4.05713426281491 9.474134178238103 2.953047497234661 8.613000000000003 2.095000000000004 C 8.457 4.300000000000004 6.1960000000000015 6.353000000000004 5.732000000000001 6.795000000000004 C 5.66007620364402 6.862767443695495 5.585343967484701 6.927490898226333 5.508000000000001 6.989000000000004 C 3.0820000000000007 8.954000000000004 3.248000000000001 10.744000000000003 3.248000000000001 10.823000000000004 C 3.1998233316293496 11.534088148954929 3.359286661168641 12.243856302002362 3.7070000000000025 12.866000000000005 C 4.072000000000001 13.511000000000003 4.597000000000001 14.043000000000003 5.227000000000001 14.406000000000002 C 4.5 12.808 4.5 10.89 7.183 8.14 L 7.555 7.890000000000001 z" stroke-linecap="round" />
</g>
<g transform="matrix(2.9467585264 0 0 2.9467585264 368.1489790951 169.9502114506)" id="NHz8D2uddnBKUfvEcwDMK"  >
<path style="stroke: none; stroke-width: 1; stroke-dasharray: none; stroke-linecap: butt; stroke-dashoffset: 0; stroke-linejoin: miter; stroke-miterlimit: 4; fill: rgb(0,0,0); fill-rule: nonzero; opacity: 1;"  transform=" translate(-8.2500930916, -7.9996199652)" d="M 9.32 15.653 C 9.130522632204112 15.407763152741653 9.097158296658737 15.076059584238227 9.234 14.798 C 9.41 14.456 9.479 14.065 9.434 13.68 C 9.39712909938992 13.405293407480174 9.30639482404911 13.140566813882828 9.167 12.901 C 9.029406259508054 12.664563554898777 8.845377867578701 12.458424542867006 8.626 12.295 C 7.878341853683471 11.733091713813254 7.353695874481717 10.924690549371388 7.145 10.012999999999998 C 5.436999999999999 12.251999999999999 6.092 13.523 6.909999999999999 14.643 C 7.107059069137871 14.912761865103679 7.101345189871979 15.280490809287151 6.895999999999999 15.544 C 6.79415454275021 15.673781005150419 6.657508610851009 15.771930240499337 6.501999999999999 15.827 C 6.3482894007018285 15.880965718463743 6.182181840684131 15.88895834164451 6.023999999999999 15.85 C 4.918999999999999 15.58 3.878999999999999 15.065999999999999 3.173999999999999 14.247 C 2.7743673317924955 13.792072255628117 2.466694172582646 13.264001877514081 2.2679999999999993 12.692 C 2.0670423358891825 12.11512929509191 1.977785600843168 11.50526483548093 2.004999999999999 10.895000000000001 C 2.004999999999999 10.895 1.871999999999999 8.431999999999999 4.841999999999999 6.018999999999999 C 4.841999999999999 6.018999999999999 8.351999999999999 3.040999999999999 7.133999999999999 0.8389999999999995 C 7.0424049936279385 0.6179342799786052 7.085974456693217 0.3639087497855128 7.245999999999999 0.1859999999999995 C 7.4021230330615255 0.010917964981374484 7.651078816766342 -0.04782441094897544 7.868999999999999 0.03899999999999948 L 8.014999999999999 0.0969999999999995 C 9.33707528135128 0.932707876923238 10.370384463896904 2.1545261670954305 10.974999999999996 3.5969999999999955 C 11.554999999999998 5.01 11.550999999999998 6.657 11.158999999999997 8.123999999999999 C 11.483999999999996 7.831999999999999 11.754999999999997 7.482999999999999 11.959999999999997 7.090999999999999 L 11.988999999999997 7.026999999999999 C 12.186999999999998 6.549999999999999 12.809999999999997 6.701999999999999 13.043999999999997 7.013999999999999 C 13.129999999999997 7.151 15.335999999999997 10.357 14.150999999999996 13.062 C 13.717740640260432 13.881547969582632 13.084918643661997 14.578683940835365 12.310999999999996 15.088999999999999 C 11.661614988174675 15.519935779704381 10.935975851613328 15.82302078856747 10.172999999999998 15.982 C 10.01529976458096 16.015202740092654 9.851357321186674 16.002003984056675 9.700999999999997 15.943999999999999 C 9.549295925641351 15.885013754574429 9.417260253591126 15.784514161675308 9.319999999999997 15.654 z M 7.554 7.892 C 7.7475071768588935 7.7911477769170965 7.985987749244088 7.854453528859349 8.104000000000001 8.038 C 8.144 8.097 8.170000000000002 8.164 8.179 8.236 L 8.224 8.585 C 8.244 9.096 8.238 9.63 8.437 10.121 C 8.642999999999999 10.625 8.963 11.071 9.369 11.419 C 9.892040175752175 11.763162224813756 10.296918653918823 12.259487393738734 10.529 12.841 C 10.749 13.405000000000001 10.779 14.031 10.613 14.614 C 11.120873556055804 14.453803035962201 11.59290296897702 14.196733780148273 12.003 13.857000000000001 L 12.106 13.773000000000001 C 12.442 13.496000000000002 12.719 13.150000000000002 12.919 12.756000000000002 C 13.120000000000001 12.363000000000001 13.241 11.931000000000003 13.273 11.487000000000002 C 13.338 10.462000000000002 12.988999999999999 9.433000000000002 12.446 8.515000000000002 C 12.198 8.875000000000002 11.856 9.154000000000002 11.461 9.319000000000003 C 11.214 9.424000000000003 10.952 9.489000000000003 10.685 9.509000000000002 C 10.532073853093214 9.518839194412385 10.379577366032862 9.48410195362415 10.246 9.409000000000002 C 10.110365100742888 9.33192365010394 9.999132890722318 9.21826581556579 9.925 9.081000000000003 C 9.800637459648325 8.856654833570751 9.787701984259895 8.587227360480302 9.89 8.352000000000004 C 10.302000000000001 7.380000000000004 10.43 6.302000000000004 10.255 5.255000000000004 C 10.047840022884547 4.05713426281491 9.474134178238103 2.953047497234661 8.613000000000003 2.095000000000004 C 8.457 4.300000000000004 6.1960000000000015 6.353000000000004 5.732000000000001 6.795000000000004 C 5.66007620364402 6.862767443695495 5.585343967484701 6.927490898226333 5.508000000000001 6.989000000000004 C 3.0820000000000007 8.954000000000004 3.248000000000001 10.744000000000003 3.248000000000001 10.823000000000004 C 3.1998233316293496 11.534088148954929 3.359286661168641 12.243856302002362 3.7070000000000025 12.866000000000005 C 4.072000000000001 13.511000000000003 4.597000000000001 14.043000000000003 5.227000000000001 14.406000000000002 C 4.5 12.808 4.5 10.89 7.183 8.14 L 7.555 7.890000000000001 z" stroke-linecap="round" />
</g>
<g transform="matrix(1.6666223107 0 0 1.6666223107 420 263.4618340224)" id="M-JjeaP7tWPvzv_hcIKLZ"  >
<path style="stroke: none; stroke-width: 1; stroke-dasharray: none; stroke-linecap: butt; stroke-dashoffset: 0; stroke-linejoin: miter; stroke-miterlimit: 4; fill: rgb(0,0,0); fill-rule: nonzero; opacity: 1;"  transform=" translate(-15.999, -15.9994610598)" d="M 15.888 31.977 C 8.349 31.977 3.0009999999999994 26.749000000000002 3.0009999999999994 19.546 C 3.0009999999999994 15.722 5.294 11.602 5.391 11.43 C 5.59 11.076 5.981 10.883 6.389 10.927999999999999 C 6.793 10.979999999999999 7.125 11.270999999999999 7.229 11.664 C 7.235 11.687999999999999 7.853 14 8.669 15.283999999999999 C 9.217 16.148 9.773 16.759 10.398 17.183 C 9.975 15.35 9.651 12.591999999999999 10.177999999999999 9.762 C 11.626 1.9940000000000007 17.74 0.1349999999999998 18.002 0.06099999999999994 C 18.339 -0.03600000000000006 18.697 0.05099999999999994 18.953 0.2839999999999999 C 19.209 0.5189999999999999 19.326 0.8699999999999999 19.259999999999998 1.2109999999999999 C 19.249999999999996 1.265 18.24 6.704000000000001 20.383 11.338000000000001 C 20.578 11.759 20.849 12.248000000000001 21.141 12.737000000000002 C 21.223999999999997 12.065000000000001 21.352999999999998 11.351000000000003 21.551 10.657000000000002 C 22.337 7.908000000000001 24.369999999999997 6.969000000000001 24.455 6.931000000000002 C 24.793999999999997 6.777000000000002 25.189999999999998 6.827000000000002 25.482 7.057000000000002 C 25.774 7.288000000000002 25.915 7.660000000000002 25.846999999999998 8.026000000000002 C 25.836 8.094000000000001 25.552999999999997 9.964000000000002 27.144999999999996 12.618000000000002 C 28.582999999999995 15.014000000000003 28.996999999999996 16.567 28.996999999999996 19.546000000000003 C 28.996999999999996 26.749000000000002 23.482999999999997 31.976000000000003 15.885999999999996 31.976000000000003 z M 6.115 14.615 C 5.566 16 5 17.841 5 19.546 C 5 25.59 9.506 29.976 15.887 29.976 C 22.325 29.976 26.997 25.59 26.997 19.545 C 26.997 16.934 26.674 15.723000000000003 25.43 13.646 C 24.598 12.260000000000002 24.187 11.013000000000002 23.991 10.021 C 23.793 10.342 23.608999999999998 10.733 23.475 11.205 C 22.865000000000002 13.336 23.019000000000002 15.828 23.021 15.854 C 23.05 16.3 22.779 16.713 22.357 16.862 C 21.935 17.010999999999996 21.465 16.863999999999997 21.206 16.497999999999998 C 21.131 16.391 19.352 13.873999999999997 18.569 12.177999999999997 C 16.941 8.659999999999997 16.968 4.854999999999997 17.134999999999998 2.663999999999998 C 15.486999999999998 3.623999999999998 12.957999999999998 5.767999999999998 12.145999999999997 10.129999999999999 C 11.354999999999997 14.373999999999999 12.891999999999998 18.618 12.907999999999998 18.659 C 13.040999999999997 19.005 12.970999999999998 19.398 12.726999999999999 19.677 C 12.482 19.954 12.104999999999999 20.076999999999998 11.740999999999998 19.99 C 11.616999999999997 19.959999999999997 8.802999999999997 19.227999999999998 6.979999999999998 16.355999999999998 C 6.654999999999998 15.841999999999999 6.362999999999998 15.218999999999998 6.115999999999998 14.613999999999997 z" stroke-linecap="round" />
</g>
</svg>