<?xml version="1.0" encoding="UTF-8" standalone="no" ?>
<!DOCTYPE svg PUBLIC "-//W3C//DTD SVG 1.1//EN" "http://www.w3.org/Graphics/SVG/1.1/DTD/svg11.dtd">
<svg xmlns="http://www.w3.org/2000/svg" xmlns:xlink="http://www.w3.org/1999/xlink" version="1.1" width="500" height="365.571" viewBox="0 0 500 365.571" xml:space="preserve">
<desc>Created with Fabric.js 5.3.0</desc>
<defs>
</defs>
<g transform="matrix(2.4901019128 0 0 2.4901018874 250.3531073446 183.1384423446)" id="OXvYxGFGdotyJvVBbLodk"  >
<g style=""   >
		<g transform="matrix(0.0364508871 0 0 -0.0364508871 0 0)" id="2Pb_G-1xBr41pWm1rgFsS"  >
<path style="stroke: none; stroke-width: 1; stroke-dasharray: none; stroke-linecap: butt; stroke-dashoffset: 0; stroke-linejoin: miter; stroke-miterlimit: 4; fill: rgb(0,0,0); fill-rule: nonzero; opacity: 1;"  transform=" translate(0, 0.0000018943)" d="M -90 2010.70096 C -160 1992.70096 -210 1970.70096 -258 1936.70096 L -314 1898.70096 L -362 1913.70096 C -430 1934.70096 -566 1934.70096 -639 1912.70096 C -723 1887.70096 -802 1845.70096 -857 1796.70096 C -901 1758.70096 -910 1754.70096 -970 1750.70096 C -1047 1745.70096 -1128 1719.70096 -1203 1674.70096 C -1257 1641.70096 -1342 1561.70096 -1373 1514.70096 L -1390 1488.70096 L -1464 1532.70096 C -1659 1646.70096 -1970 1737.70096 -2263 1766.70096 C -2492 1789.70096 -2656 1745.70096 -2719 1643.70096 C -2745 1601.70096 -2749 1582.70096 -2753 1507.70096 C -2758 1399.70096 -2741 1324.70096 -2680 1199.70096 C -2632 1098.70096 -2579 1015.7009599999999 -2502 918.7009599999999 C -2390 779.7009599999999 -1943 404.7009599999999 -1852 373.7009599999999 C -1843 370.7009599999999 -1843 366.7009599999999 -1852 355.7009599999999 C -1878 324.7009599999999 -1915 185.7009599999999 -1921 99.7009599999999 C -1932 -66.2990400000001 -1879 -220.2990400000001 -1775 -324.2990400000001 L -1719 -381.2990400000001 L -1723 -494.2990400000001 C -1726 -580.2990400000001 -1723 -624.2990400000001 -1710 -672.2990400000001 C -1676 -803.2990400000001 -1591 -934.2990400000001 -1491 -1008.2990400000001 C -1439 -1047.29904 -1437 -1050.29904 -1425 -1117.29904 C -1398 -1266.29904 -1278 -1436.29904 -1145 -1510.29904 C -1019 -1582.29904 -825 -1620.29904 -718 -1595.29904 L -675 -1585.29904 L -631 -1678.29904 C -579 -1787.29904 -537 -1837.29904 -439 -1902.29904 C -320 -1982.29904 -197 -2013.29904 0 -2013.29904 C 197 -2013.29904 320 -1982.29904 439 -1902.29904 C 537 -1837.29904 579 -1787.29904 631 -1678.29904 L 675 -1585.29904 L 718 -1595.29904 C 741 -1600.29904 798 -1603.29904 845 -1600.29904 C 1012 -1590.29904 1186 -1508.29904 1288 -1392.29904 C 1350 -1322.29904 1413 -1196.29904 1427 -1113.29904 C 1437 -1050.29904 1439 -1047.29904 1491 -1008.2990400000001 C 1591 -934.2990400000001 1676 -803.2990400000001 1710 -672.2990400000001 C 1723 -623.2990400000001 1726 -581.2990400000001 1722 -495.2990400000001 L 1718 -382.2990400000001 L 1775 -325.2990400000001 C 1879 -220.2990400000001 1932 -67.2990400000001 1921 99.7009599999999 C 1915 185.7009599999999 1878 324.7009599999999 1852 355.7009599999999 C 1843 366.7009599999999 1843 370.7009599999999 1852 373.7009599999999 C 1943 404.7009599999999 2390 779.7009599999999 2502 918.7009599999999 C 2579 1015.7009599999999 2632 1098.70096 2680 1199.70096 C 2741 1324.70096 2758 1399.70096 2753 1507.70096 C 2749 1582.70096 2745 1601.70096 2719 1643.70096 C 2656 1744.70096 2492 1789.70096 2263 1766.70096 C 1965 1736.70096 1661 1647.70096 1465 1532.70096 L 1391 1489.70096 L 1358 1533.70096 C 1262 1659.70096 1114 1741.70096 967 1750.70096 C 911 1754.70096 900 1758.70096 857 1796.70096 C 802 1845.70096 723 1887.70096 639 1912.70096 C 566 1934.70096 429 1934.70096 362 1913.70096 L 313 1897.70096 L 264 1933.70096 C 189 1987.70096 123 2008.70096 20 2012.70096 C -29 2013.70096 -79 2013.70096 -90 2010.70096 z M 115 1812.70096 C 134 1802.70096 173 1769.70096 201 1738.70096 C 245 1690.70096 258 1682.70096 287 1683.70096 C 306 1683.70096 338 1695.70096 359 1709.70096 C 475 1789.70096 644 1755.70096 762 1629.70096 C 823 1564.70096 825 1563.70096 872 1566.70096 C 958 1571.70096 999 1567.70096 1044 1551.70096 C 1103 1530.70096 1187 1466.70096 1215 1420.70096 L 1238 1384.70096 L 1174 1328.70096 C 1139 1297.70096 1081 1244.70096 1046 1208.70096 L 982 1144.70096 L 906 1180.70096 C 680 1284.70096 464 1336.70096 160 1357.70096 C -223 1384.70096 -603 1321.70096 -907 1179.70096 L -984 1143.70096 L -1047 1208.70096 C -1082 1244.70096 -1139 1298.70096 -1174 1328.70096 L -1238 1384.70096 L -1215 1420.70096 C -1187 1466.70096 -1103 1530.70096 -1044 1551.70096 C -999 1567.70096 -958 1571.70096 -872 1566.70096 C -825 1563.70096 -823 1564.70096 -762 1629.70096 C -694 1702.70096 -640 1731.70096 -549 1746.70096 C -479 1757.70096 -409 1744.70096 -358 1709.70096 C -338 1695.70096 -306 1683.70096 -287 1683.70096 C -258 1682.70096 -245 1690.70096 -201 1738.70096 C -127 1819.70096 -86 1837.70096 15 1832.70096 C 51 1830.70096 96 1821.70096 115 1812.70096 z M -2075 1557.70096 C -1708 1478.70096 -1468 1357.70096 -1224 1127.70096 L -1130 1039.70096 L -1181 985.7009599999999 C -1209 955.7009599999999 -1244 912.7009599999999 -1259 889.7009599999999 C -1276 864.7009599999999 -1292 849.7009599999999 -1299 853.7009599999999 C -1342 878.7009599999999 -1402 937.7009599999999 -1502 1052.70096 C -1565 1126.70096 -1647 1208.70096 -1683 1236.70096 C -1757 1292.70096 -1891 1361.70096 -1945 1371.70096 C -1974 1377.70096 -1968 1372.70096 -1915 1345.70096 C -1814 1294.70096 -1684 1159.70096 -1605 1021.7009599999999 C -1518 870.7009599999999 -1470 801.7009599999999 -1408 735.7009599999999 L -1355 679.7009599999999 L -1362 610.7009599999999 L -1370 541.7009599999999 L -1576 538.7009599999999 L -1782 536.7009599999999 L -1836 572.7009599999999 C -1960 657.7009599999999 -2222 882.7009599999999 -2326 993.7009599999999 C -2403 1076.70096 -2494 1215.70096 -2537 1316.70096 C -2563 1378.70096 -2569 1404.70096 -2569 1471.70096 L -2570 1551.70096 L -2535 1569.70096 C -2504 1585.70096 -2481 1587.70096 -2335 1582.70096 C -2224 1579.70096 -2139 1571.70096 -2075 1557.70096 z M 2530 1572.70096 C 2571 1555.70096 2580 1528.70096 2572 1447.70096 C 2562 1331.70096 2451 1127.70096 2326 993.7009599999999 C 2222 882.7009599999999 1960 657.7009599999999 1836 572.7009599999999 L 1782 536.7009599999999 L 1576 538.7009599999999 L 1370 541.7009599999999 L 1362 610.7009599999999 L 1355 679.7009599999999 L 1408 735.7009599999999 C 1470 801.7009599999999 1518 870.7009599999999 1605 1021.7009599999999 C 1684 1159.70096 1814 1294.70096 1915 1345.70096 C 1968 1372.70096 1974 1377.70096 1945 1371.70096 C 1891 1361.70096 1757 1292.70096 1683 1236.70096 C 1647 1208.70096 1565 1126.70096 1502 1052.70096 C 1402 937.7009599999999 1342 878.7009599999999 1299 853.7009599999999 C 1292 849.7009599999999 1276 864.7009599999999 1259 889.7009599999999 C 1244 912.7009599999999 1209 955.7009599999999 1181 985.7009599999999 L 1130 1039.70096 L 1224 1127.70096 C 1478 1367.70096 1750 1499.70096 2125 1566.70096 C 2258 1589.70096 2480 1593.70096 2530 1572.70096 z M 160 1176.70096 C 760 1133.70096 1139 911.7009599999999 1185 577.7009599999999 C 1192 527.7009599999999 1192 457.7009599999999 1185 362.7009599999999 C 1161 23.700959999999895 1103 -144.2990400000001 923 -400.2990400000001 C 772 -614.2990400000001 725 -730.2990400000001 595 -1197.29904 C 485 -1596.29904 465 -1645.29904 388 -1713.29904 C 313 -1778.29904 248 -1807.29904 128 -1827.29904 L 95 -1832.29904 L 95 -1640.29904 L 95 -1448.29904 L 168 -1381.29904 C 209 -1345.29904 273 -1291.29904 311 -1263.29904 C 349 -1234.29904 386 -1200.29904 393 -1186.29904 C 422 -1133.29904 375 -1063.29904 311 -1063.29904 C 268 -1063.29904 167 -1134.29904 47 -1247.29904 C 16 -1277.29904 1 -1285.29904 -9 -1278.29904 C -16 -1272.29904 -58 -1237.29904 -101 -1199.29904 C -211 -1104.29904 -274 -1063.29904 -311 -1063.29904 C -375 -1063.29904 -422 -1133.29904 -393 -1186.29904 C -386 -1200.29904 -349 -1234.29904 -311 -1263.29904 C -273 -1291.29904 -209 -1345.29904 -168 -1381.29904 L -95 -1448.29904 L -95 -1640.29904 L -95 -1832.29904 L -127 -1827.29904 C -248 -1807.29904 -313 -1778.29904 -388 -1713.29904 C -465 -1645.29904 -486 -1593.29904 -595 -1198.29904 C -675 -907.2990400000001 -742 -707.2990400000001 -792 -608.2990400000001 C -811 -570.2990400000001 -867 -480.2990400000001 -917 -410.2990400000001 C -1103 -145.2990400000001 -1161 21.700959999999895 -1185 362.7009599999999 C -1198 543.7009599999999 -1188 625.7009599999999 -1138 726.7009599999999 C -1018 972.7009599999999 -659 1141.70096 -181 1175.70096 C -19 1187.70096 6 1187.70096 160 1176.70096 z M -1361 279.70096 C -1334 -30.29903999999999 -1262 -226.29904 -1071 -506.29904 C -958 -672.29904 -937 -712.29904 -885 -859.29904 C -846 -970.29904 -724 -1405.2990399999999 -730 -1412.2990399999999 C -743 -1425.2990399999999 -848 -1423.2990399999999 -909 -1409.2990399999999 C -1107 -1363.2990399999999 -1242 -1215.2990399999999 -1253 -1034.2990399999999 C -1255 -992.2990399999999 -1262 -950.2990399999999 -1267 -940.2990399999999 C -1272 -931.2990399999999 -1298 -912.2990399999999 -1325 -898.2990399999999 C -1390 -865.2990399999999 -1436 -824.2990399999999 -1474 -764.2990399999999 C -1548 -649.2990399999999 -1566 -512.2990399999999 -1521 -404.2990399999999 C -1485 -320.2990399999999 -1496 -288.2990399999999 -1574 -248.29903999999988 C -1636 -217.29903999999988 -1678 -170.29903999999988 -1712 -98.29903999999988 C -1736 -45.29903999999988 -1739 -27.299039999999877 -1739 61.70096000000012 C -1738 182.70096000000012 -1713 260.7009600000001 -1655 319.7009600000001 L -1617 356.7009600000001 L -1493 356.7009600000001 L -1368 356.7009600000001 z M 1655 319.70096 C 1712 261.70096 1738 182.70096 1739 61.70096000000001 C 1740 -28.29903999999999 1737 -44.29903999999999 1712 -98.29903999999999 C 1678 -170.29904 1636 -217.29904 1574 -248.29904 C 1496 -288.29904 1485 -320.29904 1521 -404.29904 C 1566 -512.29904 1548 -649.29904 1474 -764.29904 C 1436 -824.29904 1390 -865.29904 1325 -898.29904 C 1298 -912.29904 1272 -931.29904 1267 -940.29904 C 1262 -950.29904 1255 -992.29904 1253 -1034.2990399999999 C 1242 -1215.2990399999999 1107 -1363.2990399999999 909 -1409.2990399999999 C 848 -1423.2990399999999 743 -1425.2990399999999 730 -1412.2990399999999 C 725 -1406.2990399999999 814 -1076.2990399999999 862 -929.2990399999999 C 920 -748.2990399999999 956 -675.2990399999999 1070 -508.2990399999999 C 1262 -226.29903999999988 1334 -30.299039999999877 1361 279.7009600000001 L 1368 356.7009600000001 L 1493 356.7009600000001 L 1617 356.7009600000001 z" stroke-linecap="round" />
</g>
		<g transform="matrix(2.8867105047 0 0 2.8867105047 0.3974972735 0)" id="l6i1oe0TivDdeeyF4KmqQ"  >
<path style="stroke: none; stroke-width: 1; stroke-dasharray: none; stroke-linecap: butt; stroke-dashoffset: 0; stroke-linejoin: miter; stroke-miterlimit: 4; fill: rgb(0,0,0); fill-rule: evenodd; opacity: 1;"  transform=" translate(-18.01625, -18.4957320824)" d="M 1.24 15.018 C 1.48 15.257000000000001 2.678 15.975000000000001 2.917 16.693 C 3.157 17.41 3.6369999999999996 22 5.074999999999999 23.197000000000003 C 6.558 24.429000000000002 12.152 23.970000000000002 13.222999999999999 23.437 C 15.62 22.242 15.913999999999998 18.382 16.338 16.692 C 16.577 15.735 18.015 15.735 18.015 15.735 C 18.015 15.735 19.453 15.735 19.693 16.691 C 20.117 18.381999999999998 20.413 22.253 22.808 23.445999999999998 C 23.88 23.980999999999998 29.474 24.439999999999998 30.959 23.208 C 32.394999999999996 22.011 32.874 17.409 33.114 16.691 C 33.352 15.973999999999998 34.552 15.255999999999998 34.791 15.017 C 35.032 14.777999999999999 35.032 13.821 34.791 13.581 C 34.312 13.103 28.656999999999996 12.677 22.567999999999998 13.341999999999999 C 21.352999999999998 13.474999999999998 20.891 13.819999999999999 18.013999999999996 13.819999999999999 C 15.138999999999996 13.819999999999999 14.674999999999995 13.473999999999998 13.460999999999995 13.341999999999999 C 7.375999999999995 12.677999999999999 1.7199999999999953 13.104 1.2399999999999949 13.581999999999999 C 1.000999999999995 13.821 1.000999999999995 14.779 1.2399999999999949 15.017999999999999 z" stroke-linecap="round" />
</g>
</g>
</g>
</svg>