<?xml version="1.0" encoding="UTF-8" standalone="no" ?>
<!DOCTYPE svg PUBLIC "-//W3C//DTD SVG 1.1//EN" "http://www.w3.org/Graphics/SVG/1.1/DTD/svg11.dtd">
<svg xmlns="http://www.w3.org/2000/svg" xmlns:xlink="http://www.w3.org/1999/xlink" version="1.1" width="500" height="500" viewBox="0 0 500 500" xml:space="preserve">
	<desc>Created with Fabric.js 5.3.0</desc>
	<g transform="matrix(0.6662436548 0 0 0.6662436548 250 250)" id="Hot0zMHOOg_J8zfxjvwa-"  >
		<g>
			<g transform="matrix(0.1333333333 0 0 -0.1333333333 0 0.2267949192)" id="7jO0Y2XzIQcz2wRYYsNnk"  >
				<path style="stroke: none; stroke-width: 1; stroke-dasharray: none; stroke-linecap: butt; stroke-dashoffset: 0; stroke-linejoin: miter; stroke-miterlimit: 4; fill: currentColor; fill-rule: nonzero; opacity: 1;"  transform=" translate(-2955, -2953.2990381057)" d="M 2865 4964 C 2795 4946 2745 4924 2697 4890 L 2641 4852 L 2593 4867 C 2525 4888 2389 4888 2316 4866 C 2232 4841 2153 4799 2098 4750 C 2054 4712 2045 4708 1985 4704 C 1908 4699 1827 4673 1752 4628 C 1698 4595 1613 4515 1582 4468 L 1565 4442 L 1491 4486 C 1296 4600 985 4691 692 4720 C 463 4743 299 4699 236 4597 C 210 4555 206 4536 202 4461 C 197 4353 214 4278 275 4153 C 323 4052 376 3969 453 3872 C 565 3733 1012 3358 1103 3327 C 1112 3324 1112 3320 1103 3309 C 1077 3278 1040 3139 1034 3053 C 1023 2887 1076 2733 1180 2629 L 1236 2572 L 1232 2459 C 1229 2373 1232 2329 1245 2281 C 1279 2150 1364 2019 1464 1945 C 1516 1906 1518 1903 1530 1836 C 1557 1687 1677 1517 1810 1443 C 1936 1371 2130 1333 2237 1358 L 2280 1368 L 2324 1275 C 2376 1166 2418 1116 2516 1051 C 2635 971 2758 940 2955 940 C 3152 940 3275 971 3394 1051 C 3492 1116 3534 1166 3586 1275 L 3630 1368 L 3673 1358 C 3696 1353 3753 1350 3800 1353 C 3967 1363 4141 1445 4243 1561 C 4305 1631 4368 1757 4382 1840 C 4392 1903 4394 1906 4446 1945 C 4546 2019 4631 2150 4665 2281 C 4678 2330 4681 2372 4677 2458 L 4673 2571 L 4730 2628 C 4834 2733 4887 2886 4876 3053 C 4870 3139 4833 3278 4807 3309 C 4798 3320 4798 3324 4807 3327 C 4898 3358 5345 3733 5457 3872 C 5534 3969 5587 4052 5635 4153 C 5696 4278 5713 4353 5708 4461 C 5704 4536 5700 4555 5674 4597 C 5611 4698 5447 4743 5218 4720 C 4920 4690 4616 4601 4420 4486 L 4346 4443 L 4313 4487 C 4217 4613 4069 4695 3922 4704 C 3866 4708 3855 4712 3812 4750 C 3757 4799 3678 4841 3594 4866 C 3521 4888 3384 4888 3317 4867 L 3268 4851 L 3219 4887 C 3144 4941 3078 4962 2975 4966 C 2926 4967 2876 4967 2865 4964 z M 3070 4766 C 3089 4756 3128 4723 3156 4692 C 3200 4644 3213 4636 3242 4637 C 3261 4637 3293 4649 3314 4663 C 3430 4743 3599 4709 3717 4583 C 3778 4518 3780 4517 3827 4520 C 3913 4525 3954 4521 3999 4505 C 4058 4484 4142 4420 4170 4374 L 4193 4338 L 4129 4282 C 4094 4251 4036 4198 4001 4162 L 3937 4098 L 3861 4134 C 3635 4238 3419 4290 3115 4311 C 2732 4338 2352 4275 2048 4133 L 1971 4097 L 1908 4162 C 1873 4198 1816 4252 1781 4282 L 1717 4338 L 1740 4374 C 1768 4420 1852 4484 1911 4505 C 1956 4521 1997 4525 2083 4520 C 2130 4517 2132 4518 2193 4583 C 2261 4656 2315 4685 2406 4700 C 2476 4711 2546 4698 2597 4663 C 2617 4649 2649 4637 2668 4637 C 2697 4636 2710 4644 2754 4692 C 2828 4773 2869 4791 2970 4786 C 3006 4784 3051 4775 3070 4766 z M 880 4511 C 1247 4432 1487 4311 1731 4081 L 1825 3993 L 1774 3939 C 1746 3909 1711 3866 1696 3843 C 1679 3818 1663 3803 1656 3807 C 1613 3832 1553 3891 1453 4006 C 1390 4080 1308 4162 1272 4190 C 1198 4246 1064 4315 1010 4325 C 981 4331 987 4326 1040 4299 C 1141 4248 1271 4113 1350 3975 C 1437 3824 1485 3755 1547 3689 L 1600 3633 L 1593 3564 L 1585 3495 L 1379 3492 L 1173 3490 L 1119 3526 C 995 3611 733 3836 629 3947 C 552 4030 461 4169 418 4270 C 392 4332 386 4358 386 4425 L 385 4505 L 420 4523 C 451 4539 474 4541 620 4536 C 731 4533 816 4525 880 4511 z M 5485 4526 C 5526 4509 5535 4482 5527 4401 C 5517 4285 5406 4081 5281 3947 C 5177 3836 4915 3611 4791 3526 L 4737 3490 L 4531 3492 L 4325 3495 L 4317 3564 L 4310 3633 L 4363 3689 C 4425 3755 4473 3824 4560 3975 C 4639 4113 4769 4248 4870 4299 C 4923 4326 4929 4331 4900 4325 C 4846 4315 4712 4246 4638 4190 C 4602 4162 4520 4080 4457 4006 C 4357 3891 4297 3832 4254 3807 C 4247 3803 4231 3818 4214 3843 C 4199 3866 4164 3909 4136 3939 L 4085 3993 L 4179 4081 C 4433 4321 4705 4453 5080 4520 C 5213 4543 5435 4547 5485 4526 z M 3115 4130 C 3715 4087 4094 3865 4140 3531 C 4147 3481 4147 3411 4140 3316 C 4116 2977 4058 2809 3878 2553 C 3727 2339 3680 2223 3550 1756 C 3440 1357 3420 1308 3343 1240 C 3268 1175 3203 1146 3083 1126 L 3050 1121 L 3050 1313 L 3050 1505 L 3123 1572 C 3164 1608 3228 1662 3266 1690 C 3304 1719 3341 1753 3348 1767 C 3377 1820 3330 1890 3266 1890 C 3223 1890 3122 1819 3002 1706 C 2971 1676 2956 1668 2946 1675 C 2939 1681 2897 1716 2854 1754 C 2744 1849 2681 1890 2644 1890 C 2580 1890 2533 1820 2562 1767 C 2569 1753 2606 1719 2644 1690 C 2682 1662 2746 1608 2787 1572 L 2860 1505 L 2860 1313 L 2860 1121 L 2828 1126 C 2707 1146 2642 1175 2567 1240 C 2490 1308 2469 1360 2360 1755 C 2280 2046 2213 2246 2163 2345 C 2144 2383 2088 2473 2038 2543 C 1852 2808 1794 2975 1770 3316 C 1757 3497 1767 3579 1817 3680 C 1937 3926 2296 4095 2774 4129 C 2936 4141 2961 4141 3115 4130 z M 1594 3233 C 1621 2923 1693 2727 1884 2447 C 1997 2281 2018 2241 2070 2094 C 2109 1983 2231 1548 2225 1541 C 2212 1528 2107 1530 2046 1544 C 1848 1590 1713 1738 1702 1919 C 1700 1961 1693 2003 1688 2013 C 1683 2022 1657 2041 1630 2055 C 1565 2088 1519 2129 1481 2189 C 1407 2304 1389 2441 1434 2549 C 1470 2633 1459 2665 1381 2705 C 1319 2736 1277 2783 1243 2855 C 1219 2908 1216 2926 1216 3015 C 1217 3136 1242 3214 1300 3273 L 1338 3310 L 1462 3310 L 1587 3310 L 1594 3233 z M 4610 3273 C 4667 3215 4693 3136 4694 3015 C 4695 2925 4692 2909 4667 2855 C 4633 2783 4591 2736 4529 2705 C 4451 2665 4440 2633 4476 2549 C 4521 2441 4503 2304 4429 2189 C 4391 2129 4345 2088 4280 2055 C 4253 2041 4227 2022 4222 2013 C 4217 2003 4210 1961 4208 1919 C 4197 1738 4062 1590 3864 1544 C 3803 1530 3698 1528 3685 1541 C 3680 1547 3769 1877 3817 2024 C 3875 2205 3911 2278 4025 2445 C 4217 2727 4289 2923 4316 3233 L 4323 3310 L 4448 3310 L 4572 3310 L 4610 3273 z" stroke-linecap="round" />
			</g>
			<g transform="matrix(0.1333333333 0 0 -0.1333333333 -94.8639364132 6.9995191122)" id="0WuS3p00a0o6wnLxA7ZSi"  >
				<path style="stroke: none; stroke-width: 1; stroke-dasharray: none; stroke-linecap: butt; stroke-dashoffset: 0; stroke-linejoin: miter; stroke-miterlimit: 4; fill: currentColor; fill-rule: nonzero; opacity: 1;"  transform=" translate(-2243.5204769008, -2902.5036066587)" d="M 1968 3275 C 1900 3238 1917 3124 2002 3043 C 2064 2984 2115 2965 2222 2962 L 2320 2958 L 2369 2905 C 2436 2831 2467 2775 2517 2635 L 2561 2515 L 2555 2632 C 2548 2779 2523 2879 2465 2997 C 2371 3188 2229 3291 2062 3290 C 2023 3289 1984 3283 1968 3275 z" stroke-linecap="round" />
			</g>
			<g transform="matrix(0.1333333333 0 0 -0.1333333333 94.9861860267 7.0637748758)" id="9pBWoW9ulXHKTEMppL5vG"  >
				<path style="stroke: none; stroke-width: 1; stroke-dasharray: none; stroke-linecap: butt; stroke-dashoffset: 0; stroke-linejoin: miter; stroke-miterlimit: 4; fill: currentColor; fill-rule: nonzero; opacity: 1;"  transform=" translate(-3667.3963951999, -2902.0216884313)" d="M 3727 3269 C 3648 3242 3604 3213 3544 3147 C 3425 3017 3348 2789 3351 2570 L 3351 2515 L 3394 2635 C 3443 2774 3474 2831 3541 2905 L 3590 2958 L 3688 2962 C 3795 2965 3846 2984 3908 3043 C 3994 3125 4010 3239 3940 3275 C 3899 3296 3797 3293 3727 3269 z" stroke-linecap="round" />
			</g>
		</g>
	</g>
</svg>